<mxfile host="app.diagrams.net" modified="2021-10-19T10:53:39.655Z" agent="5.0 (Windows NT 10.0; Win64; x64) AppleWebKit/537.36 (KHTML, like Gecko) Chrome/94.0.4606.81 Safari/537.36" etag="-S8D5d13iEx5y3-6w8RN" version="14.9.8" type="github">
  <diagram id="BYYno-JaMnYyA7W0cNma" name="Page-1">
    <mxGraphModel dx="1038" dy="547" grid="1" gridSize="10" guides="1" tooltips="1" connect="1" arrows="1" fold="1" page="1" pageScale="1" pageWidth="827" pageHeight="1169" math="0" shadow="0">
      <root>
        <mxCell id="0" />
        <mxCell id="1" parent="0" />
        <mxCell id="Vf-D3ZCTmiQmfs8M05H1-2" value="map" style="text;align=center;fontStyle=1;verticalAlign=middle;spacingLeft=3;spacingRight=3;strokeColor=none;rotatable=0;points=[[0,0.5],[1,0.5]];portConstraint=eastwest;" parent="1" vertex="1">
          <mxGeometry x="89" y="400" width="650" height="340" as="geometry" />
        </mxCell>
        <mxCell id="2O9lWl0sQp2YSCBKTiPs-4" value="接口" style="rounded=1;whiteSpace=wrap;html=1;strokeWidth=2;fillWeight=4;hachureGap=8;hachureAngle=45;fillColor=#dae8fc;sketch=1;strokeColor=#6c8ebf;" parent="1" vertex="1">
          <mxGeometry x="60" y="60" width="110" height="30" as="geometry" />
        </mxCell>
        <mxCell id="2O9lWl0sQp2YSCBKTiPs-5" value="桥接包" style="rounded=1;whiteSpace=wrap;html=1;strokeWidth=2;fillWeight=4;hachureGap=8;hachureAngle=45;fillColor=#fff2cc;sketch=1;strokeColor=#d6b656;" parent="1" vertex="1">
          <mxGeometry x="190" y="60" width="120" height="30" as="geometry" />
        </mxCell>
        <mxCell id="2O9lWl0sQp2YSCBKTiPs-6" value="日志标准库" style="rounded=1;whiteSpace=wrap;html=1;strokeWidth=2;fillWeight=4;hachureGap=8;hachureAngle=45;fillColor=#d5e8d4;sketch=1;strokeColor=#82b366;" parent="1" vertex="1">
          <mxGeometry x="330" y="60" width="120" height="30" as="geometry" />
        </mxCell>
        <mxCell id="2O9lWl0sQp2YSCBKTiPs-8" style="edgeStyle=orthogonalEdgeStyle;rounded=0;orthogonalLoop=1;jettySize=auto;html=1;" parent="1" source="2O9lWl0sQp2YSCBKTiPs-7" edge="1">
          <mxGeometry relative="1" as="geometry">
            <mxPoint x="220" y="225" as="targetPoint" />
          </mxGeometry>
        </mxCell>
        <mxCell id="2O9lWl0sQp2YSCBKTiPs-12" style="edgeStyle=orthogonalEdgeStyle;rounded=0;orthogonalLoop=1;jettySize=auto;html=1;entryX=0;entryY=0.5;entryDx=0;entryDy=0;" parent="1" source="2O9lWl0sQp2YSCBKTiPs-7" target="2O9lWl0sQp2YSCBKTiPs-10" edge="1">
          <mxGeometry relative="1" as="geometry">
            <Array as="points">
              <mxPoint x="175" y="225" />
              <mxPoint x="175" y="155" />
            </Array>
          </mxGeometry>
        </mxCell>
        <mxCell id="2O9lWl0sQp2YSCBKTiPs-14" style="edgeStyle=orthogonalEdgeStyle;rounded=0;orthogonalLoop=1;jettySize=auto;html=1;entryX=0;entryY=0.5;entryDx=0;entryDy=0;" parent="1" source="2O9lWl0sQp2YSCBKTiPs-7" target="2O9lWl0sQp2YSCBKTiPs-11" edge="1">
          <mxGeometry relative="1" as="geometry" />
        </mxCell>
        <mxCell id="2O9lWl0sQp2YSCBKTiPs-7" value="&lt;font style=&quot;font-size: 14px&quot;&gt;JCL&lt;/font&gt;" style="rounded=1;whiteSpace=wrap;html=1;strokeWidth=2;fillWeight=4;hachureGap=8;hachureAngle=45;fillColor=#dae8fc;sketch=1;strokeColor=#6c8ebf;" parent="1" vertex="1">
          <mxGeometry x="40" y="200" width="90" height="50" as="geometry" />
        </mxCell>
        <mxCell id="_crLHbXTW8OPMf0oXl-M-5" value="" style="edgeStyle=orthogonalEdgeStyle;rounded=0;orthogonalLoop=1;jettySize=auto;html=1;" parent="1" target="2O9lWl0sQp2YSCBKTiPs-7" edge="1">
          <mxGeometry relative="1" as="geometry">
            <mxPoint x="190" y="225" as="sourcePoint" />
          </mxGeometry>
        </mxCell>
        <mxCell id="2O9lWl0sQp2YSCBKTiPs-9" value="&lt;font style=&quot;font-size: 14px&quot;&gt;JUL&lt;/font&gt;" style="rounded=1;whiteSpace=wrap;html=1;strokeWidth=2;fillWeight=4;hachureGap=8;hachureAngle=45;fillColor=#d5e8d4;sketch=1;strokeColor=#82b366;" parent="1" vertex="1">
          <mxGeometry x="220" y="200" width="90" height="50" as="geometry" />
        </mxCell>
        <mxCell id="2O9lWl0sQp2YSCBKTiPs-10" value="&lt;font style=&quot;font-size: 14px&quot;&gt;Log4J&lt;/font&gt;" style="rounded=1;whiteSpace=wrap;html=1;strokeWidth=2;fillWeight=4;hachureGap=8;hachureAngle=45;fillColor=#d5e8d4;sketch=1;strokeColor=#82b366;" parent="1" vertex="1">
          <mxGeometry x="220" y="130" width="90" height="50" as="geometry" />
        </mxCell>
        <mxCell id="2O9lWl0sQp2YSCBKTiPs-11" value="&lt;font style=&quot;font-size: 14px&quot;&gt;Simple Log&lt;/font&gt;" style="rounded=1;whiteSpace=wrap;html=1;strokeWidth=2;fillWeight=4;hachureGap=8;hachureAngle=45;fillColor=#d5e8d4;sketch=1;strokeColor=#82b366;" parent="1" vertex="1">
          <mxGeometry x="220" y="280" width="90" height="50" as="geometry" />
        </mxCell>
        <mxCell id="2O9lWl0sQp2YSCBKTiPs-16" style="edgeStyle=orthogonalEdgeStyle;rounded=0;orthogonalLoop=1;jettySize=auto;html=1;entryX=1;entryY=0.5;entryDx=0;entryDy=0;" parent="1" source="2O9lWl0sQp2YSCBKTiPs-15" target="2O9lWl0sQp2YSCBKTiPs-18" edge="1">
          <mxGeometry relative="1" as="geometry">
            <mxPoint x="550" y="225" as="targetPoint" />
            <Array as="points" />
          </mxGeometry>
        </mxCell>
        <mxCell id="2O9lWl0sQp2YSCBKTiPs-20" style="edgeStyle=orthogonalEdgeStyle;rounded=0;orthogonalLoop=1;jettySize=auto;html=1;entryX=1;entryY=0.5;entryDx=0;entryDy=0;" parent="1" source="2O9lWl0sQp2YSCBKTiPs-15" target="2O9lWl0sQp2YSCBKTiPs-19" edge="1">
          <mxGeometry relative="1" as="geometry" />
        </mxCell>
        <mxCell id="2O9lWl0sQp2YSCBKTiPs-22" style="edgeStyle=orthogonalEdgeStyle;rounded=0;orthogonalLoop=1;jettySize=auto;html=1;entryX=1;entryY=0.5;entryDx=0;entryDy=0;" parent="1" source="2O9lWl0sQp2YSCBKTiPs-15" target="2O9lWl0sQp2YSCBKTiPs-21" edge="1">
          <mxGeometry relative="1" as="geometry" />
        </mxCell>
        <mxCell id="_crLHbXTW8OPMf0oXl-M-2" style="edgeStyle=orthogonalEdgeStyle;rounded=0;orthogonalLoop=1;jettySize=auto;html=1;entryX=0.5;entryY=0;entryDx=0;entryDy=0;" parent="1" source="2O9lWl0sQp2YSCBKTiPs-15" target="2O9lWl0sQp2YSCBKTiPs-26" edge="1">
          <mxGeometry relative="1" as="geometry" />
        </mxCell>
        <mxCell id="2O9lWl0sQp2YSCBKTiPs-15" value="&lt;font style=&quot;font-size: 14px&quot;&gt;Sl4j&lt;/font&gt;" style="rounded=1;whiteSpace=wrap;html=1;strokeWidth=2;fillWeight=4;hachureGap=8;hachureAngle=45;fillColor=#dae8fc;sketch=1;strokeColor=#6c8ebf;" parent="1" vertex="1">
          <mxGeometry x="670" y="200" width="90" height="50" as="geometry" />
        </mxCell>
        <mxCell id="2O9lWl0sQp2YSCBKTiPs-23" style="edgeStyle=orthogonalEdgeStyle;rounded=0;orthogonalLoop=1;jettySize=auto;html=1;entryX=1;entryY=0.5;entryDx=0;entryDy=0;" parent="1" source="2O9lWl0sQp2YSCBKTiPs-18" target="2O9lWl0sQp2YSCBKTiPs-10" edge="1">
          <mxGeometry relative="1" as="geometry" />
        </mxCell>
        <mxCell id="2O9lWl0sQp2YSCBKTiPs-18" value="&lt;font style=&quot;font-size: 14px&quot;&gt;Sl4j桥接Log4J&lt;/font&gt;" style="rounded=1;whiteSpace=wrap;html=1;strokeWidth=2;fillWeight=4;hachureGap=8;hachureAngle=45;fillColor=#fff2cc;sketch=1;strokeColor=#d6b656;" parent="1" vertex="1">
          <mxGeometry x="424" y="130" width="100" height="50" as="geometry" />
        </mxCell>
        <mxCell id="2O9lWl0sQp2YSCBKTiPs-24" style="edgeStyle=orthogonalEdgeStyle;rounded=0;orthogonalLoop=1;jettySize=auto;html=1;entryX=1;entryY=0.5;entryDx=0;entryDy=0;" parent="1" source="2O9lWl0sQp2YSCBKTiPs-19" target="2O9lWl0sQp2YSCBKTiPs-9" edge="1">
          <mxGeometry relative="1" as="geometry" />
        </mxCell>
        <mxCell id="2O9lWl0sQp2YSCBKTiPs-19" value="&lt;font style=&quot;font-size: 14px&quot;&gt;Sl4j桥接JUL&lt;/font&gt;" style="rounded=1;whiteSpace=wrap;html=1;strokeWidth=2;fillWeight=4;hachureGap=8;hachureAngle=45;fillColor=#fff2cc;sketch=1;strokeColor=#d6b656;" parent="1" vertex="1">
          <mxGeometry x="424" y="200" width="100" height="50" as="geometry" />
        </mxCell>
        <mxCell id="2O9lWl0sQp2YSCBKTiPs-21" value="&lt;font style=&quot;font-size: 14px&quot;&gt;Logback&lt;/font&gt;" style="rounded=1;whiteSpace=wrap;html=1;strokeWidth=2;fillWeight=4;hachureGap=8;hachureAngle=45;fillColor=#d5e8d4;sketch=1;strokeColor=#82b366;" parent="1" vertex="1">
          <mxGeometry x="424" y="280" width="100" height="50" as="geometry" />
        </mxCell>
        <mxCell id="_crLHbXTW8OPMf0oXl-M-3" style="edgeStyle=orthogonalEdgeStyle;rounded=0;orthogonalLoop=1;jettySize=auto;html=1;entryX=0.5;entryY=1;entryDx=0;entryDy=0;" parent="1" source="2O9lWl0sQp2YSCBKTiPs-26" target="2O9lWl0sQp2YSCBKTiPs-7" edge="1">
          <mxGeometry relative="1" as="geometry" />
        </mxCell>
        <mxCell id="2O9lWl0sQp2YSCBKTiPs-26" value="sl4j桥接包JCL" style="rounded=1;whiteSpace=wrap;html=1;strokeWidth=2;fillWeight=4;hachureGap=8;hachureAngle=45;fillColor=#fff2cc;sketch=1;strokeColor=#d6b656;" parent="1" vertex="1">
          <mxGeometry x="655" y="345" width="120" height="30" as="geometry" />
        </mxCell>
        <mxCell id="Vf-D3ZCTmiQmfs8M05H1-1" value="object：每万老年人拥有持证养老护理员数&lt;br&gt;object：全省养老护理员数&lt;br&gt;object：全省持证养老护理员数&lt;br&gt;object：全省老年人口数" style="html=1;" parent="1" vertex="1">
          <mxGeometry x="99" y="430" width="240" height="80" as="geometry" />
        </mxCell>
        <mxCell id="Vf-D3ZCTmiQmfs8M05H1-7" value="object：每万老年人拥有持证养老护理员数&lt;br&gt;object：全省养老护理员数" style="html=1;" parent="1" vertex="1">
          <mxGeometry x="99" y="550" width="240" height="80" as="geometry" />
        </mxCell>
        <mxCell id="Vf-D3ZCTmiQmfs8M05H1-8" value="map：全省养老护理技能等级证书分析&lt;br&gt;（object1，object2）" style="html=1;" parent="1" vertex="1">
          <mxGeometry x="459" y="550" width="240" height="80" as="geometry" />
        </mxCell>
        <mxCell id="Vf-D3ZCTmiQmfs8M05H1-9" value="object：每万老年人拥有持证养老护理员数&lt;br&gt;object：全省养老护理员数&lt;br&gt;object：全省持证养老护理员数&lt;br&gt;object：全省老年人口数" style="html=1;" parent="1" vertex="1">
          <mxGeometry x="449" y="430" width="240" height="80" as="geometry" />
        </mxCell>
        <mxCell id="Vf-D3ZCTmiQmfs8M05H1-10" value="map：全省养老护理员分析&lt;br&gt;（object1，object2）" style="html=1;" parent="1" vertex="1">
          <mxGeometry x="99" y="650" width="240" height="80" as="geometry" />
        </mxCell>
        <mxCell id="Vf-D3ZCTmiQmfs8M05H1-11" value="map：全省持证养老护理员分析&lt;br&gt;（object1，object2）" style="html=1;" parent="1" vertex="1">
          <mxGeometry x="459" y="650" width="240" height="80" as="geometry" />
        </mxCell>
        <mxCell id="-mzPDSJow-Fnk_z4d08S-9" style="edgeStyle=orthogonalEdgeStyle;rounded=0;orthogonalLoop=1;jettySize=auto;html=1;exitX=1;exitY=0.5;exitDx=0;exitDy=0;" edge="1" parent="1" source="-mzPDSJow-Fnk_z4d08S-1" target="-mzPDSJow-Fnk_z4d08S-7">
          <mxGeometry relative="1" as="geometry" />
        </mxCell>
        <mxCell id="-mzPDSJow-Fnk_z4d08S-1" value="pub_mobile_user" style="rounded=0;whiteSpace=wrap;html=1;" vertex="1" parent="1">
          <mxGeometry x="8.5" y="745" width="120" height="60" as="geometry" />
        </mxCell>
        <mxCell id="-mzPDSJow-Fnk_z4d08S-2" value="pub_user" style="rounded=0;whiteSpace=wrap;html=1;" vertex="1" parent="1">
          <mxGeometry x="483.5" y="910" width="120" height="60" as="geometry" />
        </mxCell>
        <mxCell id="-mzPDSJow-Fnk_z4d08S-3" value="pub_auth_resource" style="rounded=0;whiteSpace=wrap;html=1;" vertex="1" parent="1">
          <mxGeometry x="480" y="1190" width="120" height="60" as="geometry" />
        </mxCell>
        <mxCell id="-mzPDSJow-Fnk_z4d08S-23" style="edgeStyle=orthogonalEdgeStyle;rounded=0;orthogonalLoop=1;jettySize=auto;html=1;exitX=1;exitY=0.5;exitDx=0;exitDy=0;entryX=0;entryY=0.5;entryDx=0;entryDy=0;endArrow=none;endFill=0;" edge="1" parent="1" source="-mzPDSJow-Fnk_z4d08S-4" target="-mzPDSJow-Fnk_z4d08S-22">
          <mxGeometry relative="1" as="geometry" />
        </mxCell>
        <mxCell id="-mzPDSJow-Fnk_z4d08S-4" value="pub_role" style="rounded=0;whiteSpace=wrap;html=1;" vertex="1" parent="1">
          <mxGeometry x="219" y="1050" width="120" height="60" as="geometry" />
        </mxCell>
        <mxCell id="-mzPDSJow-Fnk_z4d08S-18" style="edgeStyle=orthogonalEdgeStyle;rounded=0;orthogonalLoop=1;jettySize=auto;html=1;exitX=0.5;exitY=0;exitDx=0;exitDy=0;entryX=0.5;entryY=1;entryDx=0;entryDy=0;endArrow=none;endFill=0;" edge="1" parent="1" source="-mzPDSJow-Fnk_z4d08S-5" target="-mzPDSJow-Fnk_z4d08S-4">
          <mxGeometry relative="1" as="geometry" />
        </mxCell>
        <mxCell id="-mzPDSJow-Fnk_z4d08S-19" style="edgeStyle=orthogonalEdgeStyle;rounded=0;orthogonalLoop=1;jettySize=auto;html=1;exitX=1;exitY=0.5;exitDx=0;exitDy=0;entryX=0;entryY=0.5;entryDx=0;entryDy=0;endArrow=none;endFill=0;" edge="1" parent="1" source="-mzPDSJow-Fnk_z4d08S-5" target="-mzPDSJow-Fnk_z4d08S-3">
          <mxGeometry relative="1" as="geometry" />
        </mxCell>
        <mxCell id="-mzPDSJow-Fnk_z4d08S-5" value="pub_role_auth_resource" style="rounded=0;whiteSpace=wrap;html=1;" vertex="1" parent="1">
          <mxGeometry x="211.75" y="1190" width="134.5" height="60" as="geometry" />
        </mxCell>
        <mxCell id="-mzPDSJow-Fnk_z4d08S-15" style="edgeStyle=orthogonalEdgeStyle;rounded=0;orthogonalLoop=1;jettySize=auto;html=1;exitX=1;exitY=0.5;exitDx=0;exitDy=0;entryX=0;entryY=0.5;entryDx=0;entryDy=0;endArrow=none;endFill=0;" edge="1" parent="1" source="-mzPDSJow-Fnk_z4d08S-6" target="-mzPDSJow-Fnk_z4d08S-2">
          <mxGeometry relative="1" as="geometry" />
        </mxCell>
        <mxCell id="-mzPDSJow-Fnk_z4d08S-16" style="edgeStyle=orthogonalEdgeStyle;rounded=0;orthogonalLoop=1;jettySize=auto;html=1;exitX=0.5;exitY=1;exitDx=0;exitDy=0;entryX=0.5;entryY=0;entryDx=0;entryDy=0;endArrow=none;endFill=0;" edge="1" parent="1" source="-mzPDSJow-Fnk_z4d08S-6" target="-mzPDSJow-Fnk_z4d08S-4">
          <mxGeometry relative="1" as="geometry" />
        </mxCell>
        <mxCell id="-mzPDSJow-Fnk_z4d08S-6" value="pub_user_role" style="rounded=0;whiteSpace=wrap;html=1;" vertex="1" parent="1">
          <mxGeometry x="219" y="910" width="120" height="60" as="geometry" />
        </mxCell>
        <mxCell id="-mzPDSJow-Fnk_z4d08S-7" value="pub_third_user_relation" style="rounded=0;whiteSpace=wrap;html=1;" vertex="1" parent="1">
          <mxGeometry x="288.5" y="745" width="141" height="60" as="geometry" />
        </mxCell>
        <mxCell id="-mzPDSJow-Fnk_z4d08S-10" value="1:1&lt;br&gt;user_phone=phone" style="text;html=1;align=center;verticalAlign=middle;resizable=0;points=[];autosize=1;strokeColor=none;" vertex="1" parent="1">
          <mxGeometry x="138.5" y="740" width="120" height="30" as="geometry" />
        </mxCell>
        <mxCell id="-mzPDSJow-Fnk_z4d08S-14" value="1:1&lt;br&gt;id=user_role_id" style="text;html=1;align=center;verticalAlign=middle;resizable=0;points=[];autosize=1;strokeColor=none;rotation=0;" vertex="1" parent="1">
          <mxGeometry x="363.5" y="900" width="100" height="30" as="geometry" />
        </mxCell>
        <mxCell id="-mzPDSJow-Fnk_z4d08S-17" value="1:n&lt;br&gt;role_group=[id]" style="text;html=1;align=center;verticalAlign=middle;resizable=0;points=[];autosize=1;strokeColor=none;" vertex="1" parent="1">
          <mxGeometry x="180" y="990" width="100" height="30" as="geometry" />
        </mxCell>
        <mxCell id="-mzPDSJow-Fnk_z4d08S-20" value="1:1&lt;br&gt;role_id=id" style="text;html=1;align=center;verticalAlign=middle;resizable=0;points=[];autosize=1;strokeColor=none;rotation=0;" vertex="1" parent="1">
          <mxGeometry x="195" y="1139" width="70" height="30" as="geometry" />
        </mxCell>
        <mxCell id="-mzPDSJow-Fnk_z4d08S-21" value="1:n&lt;br&gt;ids_group=[id]" style="text;html=1;align=center;verticalAlign=middle;resizable=0;points=[];autosize=1;strokeColor=none;" vertex="1" parent="1">
          <mxGeometry x="364" y="1180" width="90" height="30" as="geometry" />
        </mxCell>
        <mxCell id="-mzPDSJow-Fnk_z4d08S-22" value="pub_department" style="rounded=0;whiteSpace=wrap;html=1;" vertex="1" parent="1">
          <mxGeometry x="483.5" y="1050" width="120" height="60" as="geometry" />
        </mxCell>
        <mxCell id="-mzPDSJow-Fnk_z4d08S-24" value="1:1&lt;br&gt;department_id=id" style="text;html=1;align=center;verticalAlign=middle;resizable=0;points=[];autosize=1;strokeColor=none;rotation=0;" vertex="1" parent="1">
          <mxGeometry x="354" y="1040" width="110" height="30" as="geometry" />
        </mxCell>
      </root>
    </mxGraphModel>
  </diagram>
</mxfile>
